<svg xmlns="http://www.w3.org/2000/svg" viewBox="0 0 512 512" role="img" aria-labelledby="title desc">
  <title id="title">Archivist Companion concept icon</title>
  <desc id="desc">A project-specific desktop companion character with teal hair, amber eyes, and a floating notebook shard.</desc>
  <rect width="512" height="512" rx="96" fill="#f6f4ef"/>
  <circle cx="256" cy="246" r="178" fill="#d7f0ee"/>
  <path d="M143 238c0-83 50-142 118-142 69 0 119 59 119 142v86c0 70-48 112-119 112s-118-42-118-112z" fill="#242834"/>
  <path d="M162 248c8-77 43-119 99-119s92 42 101 119c-18-23-39-35-63-35-16 0-29 5-39 14-10-9-23-14-39-14-23 0-43 12-59 35z" fill="#1f8a8a"/>
  <path d="M171 276c0-58 37-104 90-104s90 46 90 104v48c0 51-35 88-90 88s-90-37-90-88z" fill="#ffd7bc"/>
  <path d="M154 261c9-63 50-113 107-113 58 0 99 50 108 113-26-20-56-31-89-31-49 0-88 16-126 31z" fill="#1f8a8a"/>
  <path d="M179 251c39-24 84-33 138-26-16-36-49-67-87-71-33 10-51 42-51 97z" fill="#155f65" opacity=".75"/>
  <circle cx="221" cy="302" r="16" fill="#f2c14e"/>
  <circle cx="303" cy="302" r="16" fill="#f2c14e"/>
  <circle cx="216" cy="297" r="5" fill="#fff8d8"/>
  <circle cx="298" cy="297" r="5" fill="#fff8d8"/>
  <path d="M238 347c14 12 34 12 48 0" fill="none" stroke="#9a4f58" stroke-width="8" stroke-linecap="round"/>
  <path d="M178 381c23 35 50 52 83 52 34 0 62-17 84-52 34 18 58 50 67 91H111c9-41 33-73 67-91z" fill="#242834"/>
  <path d="M197 394c18 21 39 32 64 32s47-11 66-32l22 78H175z" fill="#1f8a8a"/>
  <path d="M234 416h56l-13 56h-30z" fill="#f2c14e"/>
  <path d="M363 149l36 17-16 37-36-17z" fill="#ffffff" stroke="#1f8a8a" stroke-width="8" stroke-linejoin="round"/>
  <path d="M373 169l17 8" stroke="#e85d75" stroke-width="7" stroke-linecap="round"/>
  <circle cx="161" cy="168" r="18" fill="#e85d75"/>
  <circle cx="161" cy="168" r="8" fill="#fff8d8"/>
  <path d="M139 170c-26 20-41 50-41 82" fill="none" stroke="#1f8a8a" stroke-width="8" stroke-linecap="round"/>
  <path d="M379 258c25 21 38 49 38 82" fill="none" stroke="#1f8a8a" stroke-width="8" stroke-linecap="round"/>
</svg>
